<svg width="500" height="501" viewBox="0 0 500 501" fill="none" xmlns="http://www.w3.org/2000/svg">
<path d="M500 251C500 389.071 388.071 501 250 501C111.929 501 0 389.071 0 251C0 112.929 111.929 1 250 1C388.071 1 500 112.929 500 251ZM17.8119 251C17.8119 379.234 121.766 483.188 250 483.188C378.234 483.188 482.188 379.234 482.188 251C482.188 122.766 378.234 18.8119 250 18.8119C121.766 18.8119 17.8119 122.766 17.8119 251Z" fill="#C55252"/>
<path d="M21.0379 128.5C29.5378 177.5 73.2046 146.667 93.5379 128.5C113.871 110.333 92.0381 46 92.0381 46C92.0381 46 86.5381 85.5 81.0381 85C75.5381 84.5 87.0378 1 87.0378 1C70.8711 29.5 53.0379 92 50.5381 90C48.0382 88 59.0381 44.5 59.0381 44.5C59.0381 44.5 12.538 79.5 21.0379 128.5Z" fill="#C55252" stroke="black"/>
<path d="M31.5 127.5C35.9463 152.971 75.3636 131.443 86 122C96.6364 112.557 92.5003 82 92.5003 82C92.5003 82 80.8773 104.76 78.0003 104.5C75.1232 104.24 72.0679 64 72.0679 64C63.6111 78.8148 48.3079 112.04 47.0002 111C45.6925 109.96 40.0002 85 40.0002 85C40.0002 85 27.0537 102.029 31.5 127.5Z" fill="#C57C52"/>
<path d="M54.3813 140.218C49.3146 169.51 23.2851 151.078 11.1645 140.218C-0.956059 129.358 12.0586 90.9006 12.0586 90.9006C12.0586 90.9006 15.3371 114.513 18.6156 114.214C21.8941 113.916 15.0392 64 15.0392 64C24.6761 81.037 35.3063 118.399 36.7964 117.203C38.2866 116.008 31.7296 90.0039 31.7296 90.0039C31.7296 90.0039 59.4481 110.927 54.3813 140.218Z" fill="#C55252" stroke="black"/>
<path d="M48.4367 139.844C45.7429 155.024 21.8619 142.194 15.4178 136.566C8.97372 130.938 11.4796 112.728 11.4796 112.728C11.4796 112.728 18.5214 126.292 20.2645 126.137C22.0075 125.982 23.8586 102 23.8586 102C28.9822 110.829 38.2537 130.63 39.0459 130.011C39.8382 129.391 43.2869 114.515 43.2869 114.515C43.2869 114.515 51.1306 124.664 48.4367 139.844Z" fill="#C57C52"/>
<path d="M71.9998 128C78.2487 148.387 88.3754 134.529 95.9777 125.706C103.58 116.882 83.5 103.5 83.5 103.5C83.5 103.5 89.3502 110.416 87.0001 110.5C84.65 110.584 81.5 107.5 66 100.5C66 100.5 83.0006 121.5 77.5002 119.5C71.9998 117.5 68 107.874 68 107.874C68 107.874 65.7509 107.613 71.9998 128Z" fill="#C55252" stroke="black"/>
<path d="M81.5 131C82.726 135 89.3713 129.467 92.8951 125.377C96.4188 121.287 90.4999 112.5 90.4999 112.5C90.4999 112.5 89.8231 118.29 88.7338 118.329C87.6445 118.368 87.6846 115.745 80.5001 112.5C80.5001 112.5 86.88 123.428 84.3305 122.501C81.7809 121.574 74.9998 122 74.9998 122C74.9998 122 80.274 127 81.5 131Z" fill="#C57C52"/>
<path d="M183.164 456.5C174.664 505.5 130.997 474.667 110.664 456.5C90.3304 438.333 112.164 374 112.164 374C112.164 374 117.664 413.5 123.164 413C128.664 412.5 117.164 329 117.164 329C133.331 357.5 151.164 420 153.664 418C156.163 416 145.164 372.5 145.164 372.5C145.164 372.5 191.664 407.5 183.164 456.5Z" fill="#C55252" stroke="black"/>
<path d="M172.702 455.5C168.255 480.971 128.838 459.443 118.202 450C107.565 440.557 111.701 410 111.701 410C111.701 410 123.324 432.76 126.201 432.5C129.078 432.24 132.134 392 132.134 392C140.591 406.815 155.894 440.04 157.201 439C158.509 437.96 164.201 413 164.201 413C164.201 413 177.148 430.029 172.702 455.5Z" fill="#C57C52"/>
<path d="M149.82 468.218C154.887 497.51 180.917 479.078 193.037 468.218C205.158 457.358 192.143 418.901 192.143 418.901C192.143 418.901 188.865 442.513 185.586 442.214C182.308 441.916 189.162 392 189.162 392C179.526 409.037 168.895 446.399 167.405 445.203C165.915 444.008 172.472 418.004 172.472 418.004C172.472 418.004 144.754 438.927 149.82 468.218Z" fill="#C55252" stroke="black"/>
<path d="M155.765 467.844C158.459 483.024 182.34 470.194 188.784 464.566C195.228 458.938 192.722 440.728 192.722 440.728C192.722 440.728 185.68 454.292 183.937 454.137C182.194 453.982 180.343 430 180.343 430C175.219 438.829 165.948 458.63 165.156 458.011C164.363 457.391 160.915 442.515 160.915 442.515C160.915 442.515 153.071 452.664 155.765 467.844Z" fill="#C57C52"/>
<path d="M132.202 456C125.953 476.387 115.826 462.529 108.224 453.706C100.622 444.882 120.702 431.5 120.702 431.5C120.702 431.5 114.851 438.416 117.202 438.5C119.552 438.584 122.702 435.5 138.202 428.5C138.202 428.5 121.201 449.5 126.701 447.5C132.202 445.5 136.202 435.874 136.202 435.874C136.202 435.874 138.451 435.613 132.202 456Z" fill="#C55252" stroke="black"/>
<path d="M122.702 459C121.476 463 114.83 457.467 111.307 453.377C107.783 449.287 113.702 440.5 113.702 440.5C113.702 440.5 114.379 446.29 115.468 446.329C116.557 446.368 116.517 443.745 123.702 440.5C123.702 440.5 117.322 451.428 119.871 450.501C122.421 449.574 129.202 450 129.202 450C129.202 450 123.928 455 122.702 459Z" fill="#C57C52"/>
<path d="M246.5 8.5C154 11 160 23 119 50L188 19L246.5 8.5Z" fill="#D9D9D9"/>
<path d="M439.165 398.138C383.335 471.932 377.063 460.072 331.254 477.722L396.601 439.621L439.165 398.138Z" fill="#D9D9D9"/>
</svg>
